<?xml version="1.0" encoding="UTF-8"?>
<svg id="_图层_1" data-name="图层 1" xmlns="http://www.w3.org/2000/svg" xmlns:xlink="http://www.w3.org/1999/xlink" viewBox="0 0 322.81 275.38">
  <defs>
    <style>
      .cls-1 {
        fill: url(#_未命名的渐变_6-2);
      }

      .cls-2 {
        fill: url(#_未命名的渐变_6);
      }

      .cls-3 {
        fill: url(#linear-gradient);
      }
    </style>
    <linearGradient id="linear-gradient" x1="87.7" y1="8.23" x2="228.18" y2="52.05" gradientUnits="userSpaceOnUse">
      <stop offset="0" stop-color="#ffe100"/>
      <stop offset="1" stop-color="#e65304"/>
    </linearGradient>
    <linearGradient id="_未命名的渐变_6" data-name="未命名的渐变 6" x1="94.12" y1="59.37" x2="190.18" y2="160.4" gradientUnits="userSpaceOnUse">
      <stop offset="0" stop-color="#00b1ec"/>
      <stop offset="1" stop-color="#004c9f"/>
    </linearGradient>
    <linearGradient id="_未命名的渐变_6-2" data-name="未命名的渐变 6" x1="-325.19" y1="59.37" x2="-229.12" y2="160.4" gradientTransform="translate(-112.45) rotate(-180) scale(1 -1)" xlink:href="#_未命名的渐变_6"/>
  </defs>
  <g>
    <path d="M7.86,215.64h8.32l-5.04,29.13H0v-.18l7.86-28.95ZM.64,179.96H11.95c.24,0,1.06,2.68,2.45,8.04l1.77,5.73H8l-7.36-13.77Zm0,17.86H11.95c.24,0,1.06,2.67,2.45,8l1.77,5.73H8l-7.36-13.73Zm22.09-17.86h11.82l-1,4.91h13.91v5.27h-15.23l-1.45,7h10.14v13.77h6.36v5.23h-6.36v10.82h6.54v5.23h-6.54v12.59h-10.32v-12.59h-11.95v-5.23h11.95v-10.82h-11.95v-3.09c0-1.51,.88-9.15,2.64-22.91h-2.64v-5.27h3.27c.3-3.27,.58-4.91,.82-4.91Zm7.73,17.86l-2.95,13.09h3.09v-13.09h-.14Zm36.31-17.86h9.82l-3.59,8.54h-13.45v8.64h17.54v5.27h-2v42.36h-10.14v-42.36h-5.41v42.36h-10.27v-61.54h16.36c.55-2.18,.92-3.27,1.14-3.27Z"/>
    <path d="M105.72,179.96h13.91l31.22,51.4,8.04,13.41h-10c-.39-.3-8.47-12.41-24.23-36.31-.21,0-.32-.17-.32-.5l-.18-.18h-.14l-32.09,37h-10.14v-.18l35.36-47.27-11.45-17.36Z"/>
    <path d="M196.98,179.96h10.32v2.96h33.41v5.23h-33.41v2.45h31.09v5.27h-72.49v-5.27h31.09v-2.45h-33.36v-5.23h33.36v-2.96Zm-26.63,33.72h12.09l.32,3.77h38.77l.36-3.77h12.09v.18l-1.82,3.59h8.54v5.23h-77.08v-5.23h8.5l-1.77-3.77Zm-4.27,10h11.45l-.5,2.09h26.18v5.73c0,6.27-2.39,10.42-7.18,12.45-2.18,.55-3.88,.82-5.09,.82h-2.95v-5.09c3.27,0,4.91-2.23,4.91-6.68v-1.95h-17.32l-3.77,13.73h-8.18l1.64-13.73h-1.64v-5.27h2.27l.18-2.09Zm-.5-25.72h73.13v14.09h-73.13v-14.09Zm10.32,5.27v3.59h52.54v-3.59h-52.54Zm29.13,22.54h35.68v19h-35.68v-19Zm10.32,5.27v8.63h15.18v-8.63h-15.18Z"/>
    <path d="M245.43,196.32h10.82l2.59,39.95h-7.36c-.27,0-.55-1.53-.82-4.59-3.48-22.42-5.23-34.21-5.23-35.36Zm0,43.36h31.09v5.09h-31.09v-5.09Zm9.32-59.72h11.95l.32,6.91h8.36v5.23h-28.95v-5.23h9.82l-1.5-6.91Zm10.95,16.36h10.82l-5.91,39.95h-7.68l2.77-39.95Zm28.82-16.36h10.32v4.91h16.36v5.27h-16.36v4.09h15.36v5.23h-15.36v3.91h17.68v5.23h-45.81v-5.23h17.82v-3.91h-15.54v-5.23h15.54v-4.09h-16.54v-5.27h16.54v-4.91Zm-16.54,31.09h43.22v20.32c0,6.39-2.35,10.53-7.04,12.41-1.88,.67-3.62,1-5.23,1h-4.27v-5.09h1c2.24,0,3.77-.86,4.59-2.59v-.32h-21.95v8h-10.32v-33.72Zm10.32,5.27v5.04h22.59v-5.04h-22.59Zm0,10.14v5.04h22.59v-5.04h-22.59Z"/>
  </g>
  <g>
    <path d="M8.49,258.77h3.69v10.33c0,1.35-.13,2.39-.4,3.12-.36,.95-1.01,1.71-1.95,2.29-.94,.58-2.19,.86-3.73,.86-1.81,0-3.2-.45-4.18-1.35-.98-.9-1.47-2.23-1.48-3.97l3.49-.36c.04,.94,.2,1.6,.46,1.98,.4,.59,1.01,.88,1.83,.88s1.41-.21,1.75-.63c.34-.42,.51-1.29,.51-2.61v-10.55Z"/>
    <path d="M26.78,275.1v-16.33h3.71v16.33h-3.71Z"/>
    <path d="M61.33,275.1h-4.03l-1.6-3.71h-7.34l-1.51,3.71h-3.93l7.15-16.33h3.92l7.35,16.33Zm-6.82-6.46l-2.53-6.06-2.48,6.06h5.01Z"/>
    <path d="M74.1,275.1v-16.33h3.6l7.51,10.9v-10.9h3.44v16.33h-3.72l-7.4-10.65v10.65h-3.44Z"/>
    <path d="M103.35,275.1v-16.33h7.8c1.96,0,3.39,.15,4.27,.44s1.6,.81,2.13,1.56c.53,.75,.8,1.61,.8,2.57,0,1.23-.4,2.24-1.21,3.04-.81,.8-2.02,1.3-3.63,1.51,.8,.42,1.46,.87,1.98,1.37,.52,.5,1.22,1.38,2.11,2.65l2.24,3.18h-4.43l-2.68-3.55c-.95-1.27-1.6-2.07-1.95-2.4s-.72-.56-1.11-.68c-.39-.12-1.01-.18-1.86-.18h-.75v6.82h-3.71Zm3.71-9.42h2.74c1.78,0,2.89-.07,3.33-.2,.44-.13,.79-.36,1.04-.69,.25-.33,.38-.73,.38-1.22,0-.55-.17-.99-.49-1.33-.33-.34-.79-.55-1.4-.64-.3-.04-1.2-.06-2.7-.06h-2.89v4.14Z"/>
    <path d="M132.59,258.77h3.71v8.84c0,1.4,.05,2.31,.14,2.73,.16,.67,.54,1.2,1.13,1.61,.6,.4,1.41,.61,2.45,.61s1.84-.19,2.38-.57c.53-.38,.86-.85,.96-1.41s.16-1.48,.16-2.77v-9.03h3.71v8.57c0,1.96-.1,3.34-.3,4.15-.2,.81-.57,1.49-1.11,2.05-.54,.56-1.26,1-2.16,1.33-.9,.33-2.08,.5-3.53,.5-1.75,0-3.08-.18-3.99-.54s-1.62-.83-2.15-1.4c-.53-.58-.87-1.18-1.04-1.81-.24-.94-.36-2.32-.36-4.14v-8.71Z"/>
    <path d="M168.52,258.77h3.69v10.33c0,1.35-.13,2.39-.4,3.12-.36,.95-1.01,1.71-1.95,2.29-.94,.58-2.19,.86-3.73,.86-1.81,0-3.21-.45-4.18-1.35-.98-.9-1.47-2.23-1.48-3.97l3.49-.36c.04,.94,.2,1.6,.46,1.98,.4,.59,1.01,.88,1.83,.88s1.41-.21,1.75-.63c.34-.42,.51-1.29,.51-2.61v-10.55Z"/>
    <path d="M186.81,275.1v-16.33h3.71v16.33h-3.71Z"/>
    <path d="M221.36,275.1h-4.03l-1.6-3.71h-7.33l-1.51,3.71h-3.93l7.15-16.33h3.92l7.35,16.33Zm-6.82-6.46l-2.53-6.06-2.48,6.06h5.01Z"/>
    <path d="M240.72,258.77h3.69v10.33c0,1.35-.13,2.39-.4,3.12-.36,.95-1.01,1.71-1.95,2.29-.94,.58-2.19,.86-3.73,.86-1.81,0-3.2-.45-4.18-1.35-.98-.9-1.47-2.23-1.48-3.97l3.49-.36c.04,.94,.2,1.6,.46,1.98,.4,.59,1.01,.88,1.83,.88s1.41-.21,1.75-.63c.34-.42,.51-1.29,.51-2.61v-10.55Z"/>
    <path d="M259,275.1v-16.33h3.71v16.33h-3.71Z"/>
    <path d="M277.04,275.1v-16.33h3.61l7.51,10.9v-10.9h3.44v16.33h-3.72l-7.4-10.65v10.65h-3.44Z"/>
    <path d="M314.83,269.1v-2.75h7.99v6.5c-.78,.67-1.9,1.26-3.37,1.76s-2.96,.76-4.47,.76c-1.92,0-3.59-.36-5.02-1.07-1.43-.72-2.5-1.74-3.22-3.07-.72-1.33-1.08-2.78-1.08-4.35,0-1.7,.4-3.21,1.2-4.53,.8-1.32,1.97-2.33,3.52-3.04,1.18-.54,2.64-.81,4.39-.81,2.28,0,4.06,.43,5.34,1.28,1.28,.85,2.11,2.03,2.47,3.52l-3.68,.61c-.26-.8-.74-1.44-1.46-1.9s-1.6-.7-2.67-.7c-1.62,0-2.91,.46-3.86,1.37-.96,.91-1.43,2.27-1.43,4.06,0,1.94,.48,3.39,1.45,4.36,.97,.97,2.24,1.45,3.81,1.45,.78,0,1.55-.14,2.33-.41,.78-.27,1.45-.6,2.01-.99v-2.07h-4.24Z"/>
  </g>
  <path class="cls-3" d="M85.8,13.12l12.92,35.57h106.05l14.35-35.21-6.17-3.22s-23.25,20.77-33.72,20.77S156.55,4.41,155.98,0h-7.47s-11.91,30.43-21.95,30.43S90.53,10.26,90.53,10.26l-4.74,2.86Z"/>
  <path class="cls-2" d="M149.74,57.02h-52.08v21.38h33.7v54.68s-6.88-5.16-11.95-16.94c-5.15-11.97-6.57-25.78-6.57-25.78h-14.9c-.18,34.49,20.52,57.74,35.8,70.2,1.83,1.49,4.11,2.29,6.47,2.29h9.53V57.02Z"/>
  <path class="cls-1" d="M209.19,78.4v-21.38h-52.08v105.83h8.23c3.2,0,6.32-1.08,8.78-3.13,15.17-12.65,34.96-35.63,34.79-69.37h-14.9s-1.41,13.81-6.57,25.78c-5.07,11.78-11.95,16.94-11.95,16.94v-54.68h33.7Z"/>
</svg>